<svg width="24" height="24" viewBox="0 0 24 24" fill="none" xmlns="http://www.w3.org/2000/svg">
<path d="M23.7672 17.3639C23.7229 17.3392 20.4505 15.4688 16.6983 12.046C19.5212 9.24797 22.6042 5.98388 22.803 5.77456C22.8637 5.70957 22.9039 5.62835 22.9188 5.54089C22.9337 5.45342 22.9226 5.36354 22.8867 5.2823C22.8487 5.20097 22.7881 5.13213 22.7121 5.0839C22.6361 5.03566 22.5478 5.01002 22.4576 5.01H15.5731C17.3719 2.42592 18.0821 0.72286 18.1231 0.624524C18.1511 0.555392 18.1614 0.480437 18.1531 0.406371C18.1448 0.332304 18.1182 0.26144 18.0756 0.200123C18.0356 0.142863 17.9833 0.0951941 17.9224 0.0605779C17.8615 0.0259616 17.7937 0.00526786 17.7238 0L7.27666 0C7.20676 0.00529927 7.13892 0.0260061 7.07806 0.0606194C7.0172 0.0952328 6.96485 0.142885 6.92479 0.200123C6.88186 0.261285 6.85504 0.332189 6.8468 0.406337C6.83855 0.480485 6.84915 0.555505 6.8776 0.624524C6.9186 0.722896 7.62852 2.42593 9.42885 5.01H2.54314C2.45296 5.00999 2.36466 5.03561 2.28863 5.08385C2.2126 5.13209 2.152 5.20094 2.11399 5.2823C2.07808 5.36362 2.06701 5.45366 2.08217 5.54119C2.09733 5.62872 2.13804 5.70988 2.19923 5.77456C2.39773 5.98388 5.47954 9.24797 8.3007 12.046C4.55021 15.4688 1.27754 17.3392 1.2333 17.3639C1.16404 17.4025 1.1061 17.4584 1.06519 17.5261C1.02428 17.5937 1.00181 17.6708 1 17.7498V17.7668C1.00055 17.8042 1.0058 17.8414 1.01563 17.8775C1.04347 17.975 1.10267 18.0608 1.18417 18.1216C1.26568 18.1825 1.36499 18.2151 1.4669 18.2145H8.84517C6.89176 19.9975 4.37797 22.0649 2.19923 23.1368C2.14469 23.1629 2.09596 23.1996 2.05596 23.2448C2.01595 23.29 1.98547 23.3427 1.96632 23.3998C1.94717 23.4569 1.93975 23.5173 1.9445 23.5773C1.94925 23.6373 1.96606 23.6958 1.99395 23.7492C2.03341 23.8255 2.09343 23.8894 2.16729 23.9337C2.24116 23.9779 2.32595 24.0009 2.41218 24C2.4848 23.9999 2.55647 23.9836 2.62189 23.9522C5.20351 22.6802 8.1494 20.1588 10.2101 18.2144H14.7891C16.8528 20.1588 19.7958 22.6801 22.3786 23.9522C22.4447 23.9836 22.5169 23.9999 22.5901 23.9999C22.676 24.0007 22.7605 23.9776 22.8341 23.9333C22.9076 23.889 22.9673 23.8253 23.0065 23.7492C23.0345 23.6958 23.0513 23.6373 23.0561 23.5773C23.0609 23.5173 23.0535 23.4569 23.0343 23.3998C23.0152 23.3427 22.9848 23.29 22.9448 23.2448C22.9048 23.1996 22.8561 23.1629 22.8016 23.1368C20.6208 22.0648 18.109 19.9975 16.1556 18.2144H23.5321C23.634 18.2151 23.7333 18.1825 23.8148 18.1216C23.8963 18.0607 23.9555 17.975 23.9834 17.8774C24.0107 17.7801 24.0042 17.6765 23.965 17.5833C23.9257 17.4901 23.856 17.4128 23.7672 17.3639ZM21.3876 5.92235C20.2768 7.08687 18.0709 9.3834 16.0214 11.4154C15.0322 10.4755 14.0205 9.43113 13.036 8.28818C13.7491 7.45146 14.3723 6.65901 14.9182 5.92235H21.3876ZM15.3648 12.0615C14.2447 13.1598 13.2174 14.1274 12.4995 14.718C11.7849 14.1274 10.7543 13.1598 9.63412 12.0615C10.5856 11.1601 11.5527 10.1649 12.4995 9.08031C13.4477 10.1649 14.4151 11.1601 15.3648 12.0615ZM11.2451 5.92235H13.7571C13.3752 6.4221 12.956 6.94407 12.4995 7.48826C12.045 6.94511 11.6269 6.42314 11.2451 5.92235ZM8.03879 0.912353H16.9617C16.2262 2.34154 15.3801 3.71157 14.4308 5.01H10.5697C9.62041 3.71157 8.77421 2.34155 8.03879 0.912353ZM3.61289 5.92235H10.0821C10.6266 6.65901 11.2513 7.45146 11.9645 8.28818C11.0222 9.37974 10.0253 10.4235 8.97759 11.4154C6.92951 9.3834 4.72364 7.08687 3.61289 5.92235ZM9.82348 17.3038H3.06223C5.14334 15.9194 7.11462 14.3782 8.95871 12.6938C10.0521 13.7628 11.0667 14.7195 11.8052 15.3394C11.4185 15.7425 10.7166 16.4547 9.82348 17.3038ZM12.5027 17.3038H11.1599C11.7406 16.7362 12.2107 16.2655 12.4995 15.9625C12.7897 16.2655 13.2601 16.7362 13.8406 17.3038H12.5027ZM15.1787 17.3038C14.2842 16.4547 13.5819 15.7425 13.1938 15.3394C13.9338 14.7195 14.9499 13.7628 16.0435 12.6938C17.887 14.3789 19.8583 15.9202 21.94 17.3038H15.1787Z" fill="#D6BD8A"/>
<path d="M23.7672 17.3639C23.7229 17.3392 20.4505 15.4688 16.6983 12.046C19.5212 9.24797 22.6042 5.98388 22.803 5.77456C22.8637 5.70957 22.9039 5.62835 22.9188 5.54089C22.9337 5.45342 22.9226 5.36354 22.8867 5.2823C22.8487 5.20097 22.7881 5.13213 22.7121 5.0839C22.6361 5.03566 22.5478 5.01002 22.4576 5.01H15.5731C17.3719 2.42592 18.0821 0.72286 18.1231 0.624524C18.1511 0.555392 18.1614 0.480437 18.1531 0.406371C18.1448 0.332304 18.1182 0.26144 18.0756 0.200123C18.0356 0.142863 17.9833 0.0951941 17.9224 0.0605779C17.8615 0.0259616 17.7937 0.00526786 17.7238 0L7.27666 0C7.20676 0.00529927 7.13892 0.0260061 7.07806 0.0606194C7.0172 0.0952328 6.96485 0.142885 6.92479 0.200123C6.88186 0.261285 6.85504 0.332189 6.8468 0.406337C6.83855 0.480485 6.84915 0.555505 6.8776 0.624524C6.9186 0.722896 7.62852 2.42593 9.42885 5.01H2.54314C2.45296 5.00999 2.36466 5.03561 2.28863 5.08385C2.2126 5.13209 2.152 5.20094 2.11399 5.2823C2.07808 5.36362 2.06701 5.45366 2.08217 5.54119C2.09733 5.62872 2.13804 5.70988 2.19923 5.77456C2.39773 5.98388 5.47954 9.24797 8.3007 12.046C4.55021 15.4688 1.27754 17.3392 1.2333 17.3639C1.16404 17.4025 1.1061 17.4584 1.06519 17.5261C1.02428 17.5937 1.00181 17.6708 1 17.7498V17.7668C1.00055 17.8042 1.0058 17.8414 1.01563 17.8775C1.04347 17.975 1.10267 18.0608 1.18417 18.1216C1.26568 18.1825 1.36499 18.2151 1.4669 18.2145H8.84517C6.89176 19.9975 4.37797 22.0649 2.19923 23.1368C2.14469 23.1629 2.09596 23.1996 2.05596 23.2448C2.01595 23.29 1.98547 23.3427 1.96632 23.3998C1.94717 23.4569 1.93975 23.5173 1.9445 23.5773C1.94925 23.6373 1.96606 23.6958 1.99395 23.7492C2.03341 23.8255 2.09343 23.8894 2.16729 23.9337C2.24116 23.9779 2.32595 24.0009 2.41218 24C2.4848 23.9999 2.55647 23.9836 2.62189 23.9522C5.20351 22.6802 8.1494 20.1588 10.2101 18.2144H14.7891C16.8528 20.1588 19.7958 22.6801 22.3786 23.9522C22.4447 23.9836 22.5169 23.9999 22.5901 23.9999C22.676 24.0007 22.7605 23.9776 22.8341 23.9333C22.9076 23.889 22.9673 23.8253 23.0065 23.7492C23.0345 23.6958 23.0513 23.6373 23.0561 23.5773C23.0609 23.5173 23.0535 23.4569 23.0343 23.3998C23.0152 23.3427 22.9848 23.29 22.9448 23.2448C22.9048 23.1996 22.8561 23.1629 22.8016 23.1368C20.6208 22.0648 18.109 19.9975 16.1556 18.2144H23.5321C23.634 18.2151 23.7333 18.1825 23.8148 18.1216C23.8963 18.0607 23.9555 17.975 23.9834 17.8774C24.0107 17.7801 24.0042 17.6765 23.965 17.5833C23.9257 17.4901 23.856 17.4128 23.7672 17.3639ZM21.3876 5.92235C20.2768 7.08687 18.0709 9.3834 16.0214 11.4154C15.0322 10.4755 14.0205 9.43113 13.036 8.28818C13.7491 7.45146 14.3723 6.65901 14.9182 5.92235H21.3876ZM15.3648 12.0615C14.2447 13.1598 13.2174 14.1274 12.4995 14.718C11.7849 14.1274 10.7543 13.1598 9.63412 12.0615C10.5856 11.1601 11.5527 10.1649 12.4995 9.08031C13.4477 10.1649 14.4151 11.1601 15.3648 12.0615ZM11.2451 5.92235H13.7571C13.3752 6.4221 12.956 6.94407 12.4995 7.48826C12.045 6.94511 11.6269 6.42314 11.2451 5.92235ZM8.03879 0.912353H16.9617C16.2262 2.34154 15.3801 3.71157 14.4308 5.01H10.5697C9.62041 3.71157 8.77421 2.34155 8.03879 0.912353ZM3.61289 5.92235H10.0821C10.6266 6.65901 11.2513 7.45146 11.9645 8.28818C11.0222 9.37974 10.0253 10.4235 8.97759 11.4154C6.92951 9.3834 4.72364 7.08687 3.61289 5.92235ZM9.82348 17.3038H3.06223C5.14334 15.9194 7.11462 14.3782 8.95871 12.6938C10.0521 13.7628 11.0667 14.7195 11.8052 15.3394C11.4185 15.7425 10.7166 16.4547 9.82348 17.3038ZM12.5027 17.3038H11.1599C11.7406 16.7362 12.2107 16.2655 12.4995 15.9625C12.7897 16.2655 13.2601 16.7362 13.8406 17.3038H12.5027ZM15.1787 17.3038C14.2842 16.4547 13.5819 15.7425 13.1938 15.3394C13.9338 14.7195 14.9499 13.7628 16.0435 12.6938C17.887 14.3789 19.8583 15.9202 21.94 17.3038H15.1787Z" fill="#B9A0A3" fill-opacity="0.3"/>
</svg>
